<svg width="41" height="40" viewBox="0 0 41 40" fill="none" xmlns="http://www.w3.org/2000/svg">
<ellipse cx="20.5" cy="20" rx="20.5" ry="20" fill="#003C5A"/>
<g clip-path="url(#clip0_12_2)">
<path d="M20.0036 15.957C17.7321 15.957 15.9 17.7605 15.9 19.9965C15.9 22.2324 17.7321 24.0359 20.0036 24.0359C22.275 24.0359 24.1071 22.2324 24.1071 19.9965C24.1071 17.7605 22.275 15.957 20.0036 15.957ZM20.0036 22.6226C18.5357 22.6226 17.3357 21.4449 17.3357 19.9965C17.3357 18.548 18.5321 17.3703 20.0036 17.3703C21.475 17.3703 22.6714 18.548 22.6714 19.9965C22.6714 21.4449 21.4714 22.6226 20.0036 22.6226ZM25.2321 15.7918C25.2321 16.3156 24.8036 16.734 24.275 16.734C23.7429 16.734 23.3179 16.3121 23.3179 15.7918C23.3179 15.2715 23.7464 14.8496 24.275 14.8496C24.8036 14.8496 25.2321 15.2715 25.2321 15.7918ZM27.95 16.748C27.8893 15.4859 27.5964 14.368 26.6571 13.4469C25.7214 12.5258 24.5857 12.2375 23.3036 12.1742C21.9821 12.1004 18.0214 12.1004 16.7 12.1742C15.4214 12.234 14.2857 12.5223 13.3464 13.4433C12.4071 14.3644 12.1179 15.4824 12.0536 16.7445C11.9786 18.0453 11.9786 21.9441 12.0536 23.2449C12.1143 24.507 12.4071 25.625 13.3464 26.5461C14.2857 27.4672 15.4179 27.7555 16.7 27.8187C18.0214 27.8926 21.9821 27.8926 23.3036 27.8187C24.5857 27.759 25.7214 27.4707 26.6571 26.5461C27.5928 25.625 27.8857 24.507 27.95 23.2449C28.025 21.9441 28.025 18.0488 27.95 16.748ZM26.2428 24.6406C25.9643 25.3297 25.425 25.8605 24.7214 26.1383C23.6679 26.5496 21.1678 26.4547 20.0036 26.4547C18.8393 26.4547 16.3357 26.5461 15.2857 26.1383C14.5857 25.864 14.0464 25.3332 13.7643 24.6406C13.3464 23.6035 13.4429 21.1426 13.4429 19.9965C13.4429 18.8504 13.35 16.3859 13.7643 15.3523C14.0429 14.6633 14.5821 14.1324 15.2857 13.8547C16.3393 13.4433 18.8393 13.5383 20.0036 13.5383C21.1678 13.5383 23.6714 13.4469 24.7214 13.8547C25.4214 14.1289 25.9607 14.6598 26.2428 15.3523C26.6607 16.3894 26.5643 18.8504 26.5643 19.9965C26.5643 21.1426 26.6607 23.607 26.2428 24.6406Z" fill="white"/>
</g>
<defs>
<clipPath id="clip0_12_2">
<rect width="16" height="18" fill="white" transform="translate(12 11)"/>
</clipPath>
</defs>
</svg>
