<svg width="41" height="40" viewBox="0 0 41 40" fill="none" xmlns="http://www.w3.org/2000/svg">
<ellipse cx="20.5" cy="20" rx="20.5" ry="20" fill="#003C5A"/>
<g clip-path="url(#clip0_12_8)">
<path d="M28 18.9693C26.5254 18.9725 25.0871 18.516 23.8884 17.6645V23.6012C23.8881 24.7007 23.5492 25.7739 22.9171 26.6772C22.2851 27.5806 21.3899 28.271 20.3514 28.6562C19.3129 29.0414 18.1806 29.1029 17.1059 28.8327C16.0312 28.5624 15.0653 27.9731 14.3374 27.1437C13.6095 26.3143 13.1544 25.2843 13.0328 24.1914C12.9113 23.0985 13.1291 21.9949 13.6572 21.0281C14.1853 20.0613 14.9984 19.2775 15.9879 18.7814C16.9774 18.2853 18.096 18.1007 19.1942 18.2521V21.2371C18.6921 21.0804 18.1528 21.0849 17.6534 21.2502C17.1541 21.4155 16.7202 21.733 16.4136 22.1574C16.1071 22.5818 15.9436 23.0914 15.9465 23.6135C15.9494 24.1355 16.1185 24.6433 16.4298 25.0643C16.7411 25.4853 17.1785 25.798 17.6797 25.9578C18.1809 26.1176 18.7201 26.1163 19.2205 25.954C19.7209 25.7918 20.1567 25.4769 20.4659 25.0544C20.775 24.6318 20.9417 24.1232 20.942 23.6012V12H23.8884C23.8867 12.2471 23.908 12.4939 23.952 12.7371C24.0545 13.2793 24.2674 13.7951 24.5777 14.253C24.888 14.7108 25.2891 15.1011 25.7567 15.4C26.4222 15.8359 27.2024 16.068 28 16.0674V18.9693Z" fill="white"/>
</g>
<defs>
<clipPath id="clip0_12_8">
<rect width="15" height="17" fill="white" transform="translate(13 12)"/>
</clipPath>
</defs>
</svg>
