<svg width="31" height="30" viewBox="0 0 31 30" fill="none" xmlns="http://www.w3.org/2000/svg">
<ellipse cx="15.5" cy="15" rx="15.5" ry="15" fill="white"/>
<g clip-path="url(#clip0_61_36)">
<path d="M15.125 11.8374C13.1929 11.8374 11.6345 13.4155 11.6345 15.3719C11.6345 17.3284 13.1929 18.9065 15.125 18.9065C17.0571 18.9065 18.6155 17.3284 18.6155 15.3719C18.6155 13.4155 17.0571 11.8374 15.125 11.8374ZM15.125 17.6698C13.8764 17.6698 12.8557 16.6393 12.8557 15.3719C12.8557 14.1046 13.8734 13.074 15.125 13.074C16.3766 13.074 17.3943 14.1046 17.3943 15.3719C17.3943 16.6393 16.3736 17.6698 15.125 17.6698ZM19.5725 11.6928C19.5725 12.1512 19.2079 12.5172 18.7583 12.5172C18.3057 12.5172 17.9442 12.1481 17.9442 11.6928C17.9442 11.2376 18.3087 10.8684 18.7583 10.8684C19.2079 10.8684 19.5725 11.2376 19.5725 11.6928ZM21.8843 12.5296C21.8327 11.4252 21.5835 10.447 20.7846 9.64103C19.9887 8.83507 19.0226 8.58282 17.932 8.52745C16.808 8.46285 13.439 8.46285 12.3149 8.52745C11.2274 8.57975 10.2613 8.83199 9.46236 9.63795C8.66339 10.4439 8.41733 11.4221 8.36264 12.5265C8.29885 13.6647 8.29885 17.0761 8.36264 18.2143C8.41429 19.3187 8.66339 20.2969 9.46236 21.1028C10.2613 21.9088 11.2243 22.161 12.3149 22.2164C13.439 22.281 16.808 22.281 17.932 22.2164C19.0226 22.1641 19.9887 21.9119 20.7846 21.1028C21.5805 20.2969 21.8296 19.3187 21.8843 18.2143C21.9481 17.0761 21.9481 13.6677 21.8843 12.5296ZM20.4322 19.4356C20.1952 20.0385 19.7365 20.503 19.138 20.746C18.2419 21.1059 16.1153 21.0229 15.125 21.0229C14.1346 21.0229 12.0051 21.1028 11.1119 20.746C10.5165 20.5061 10.0578 20.0416 9.81779 19.4356C9.46236 18.5281 9.54438 16.3748 9.54438 15.3719C9.54438 14.3691 9.4654 12.2127 9.81779 11.3083C10.0547 10.7054 10.5135 10.2409 11.1119 9.99786C12.0081 9.63795 14.1346 9.72101 15.125 9.72101C16.1153 9.72101 18.2449 9.64103 19.138 9.99786C19.7335 10.2378 20.1922 10.7023 20.4322 11.3083C20.7876 12.2158 20.7056 14.3691 20.7056 15.3719C20.7056 16.3748 20.7876 18.5312 20.4322 19.4356Z" fill="#003C5A"/>
</g>
<defs>
<clipPath id="clip0_61_36">
<rect width="13.6098" height="15.75" fill="white" transform="translate(8.31707 7.5)"/>
</clipPath>
</defs>
</svg>
