<svg width="31" height="30" viewBox="0 0 31 30" fill="none" xmlns="http://www.w3.org/2000/svg">
<ellipse cx="15.5" cy="15" rx="15.5" ry="15" fill="white"/>
<g clip-path="url(#clip0_61_40)">
<path d="M23 13.3793C21.4271 13.3826 19.893 12.8993 18.6143 11.9977V18.2836C18.6139 19.4478 18.2525 20.5841 17.5783 21.5406C16.9041 22.4971 15.9492 23.2281 14.8415 23.636C13.7338 24.0438 12.526 24.109 11.3796 23.8228C10.2332 23.5366 9.20296 22.9127 8.42657 22.0345C7.65017 21.1563 7.16468 20.0657 7.03501 18.9086C6.90535 17.7514 7.1377 16.5828 7.70099 15.5592C8.26427 14.5355 9.13164 13.7056 10.1871 13.1803C11.2425 12.6551 12.4358 12.4595 13.6071 12.6199V15.7805C13.0715 15.6145 12.4963 15.6193 11.9637 15.7943C11.431 15.9693 10.9682 16.3055 10.6412 16.7549C10.3142 17.2043 10.1398 17.7439 10.1429 18.2966C10.146 18.8493 10.3264 19.387 10.6585 19.8328C10.9905 20.2786 11.4571 20.6097 11.9917 20.7789C12.5263 20.9481 13.1015 20.9467 13.6352 20.7749C14.1689 20.6031 14.6339 20.2697 14.9636 19.8223C15.2934 19.3749 15.4711 18.8364 15.4714 18.2836V6H18.6143C18.6125 6.26166 18.6352 6.52292 18.6821 6.78047C18.7914 7.35457 19.0185 7.9007 19.3495 8.38549C19.6805 8.87028 20.1084 9.28353 20.6071 9.6C21.3171 10.0615 22.1492 10.3073 23 10.3066V13.3793Z" fill="#003C5A"/>
</g>
<defs>
<clipPath id="clip0_61_40">
<rect width="16" height="18" fill="white" transform="translate(7 6)"/>
</clipPath>
</defs>
</svg>
