<svg width="31" height="30" viewBox="0 0 31 30" fill="none" xmlns="http://www.w3.org/2000/svg">
<ellipse cx="15.5" cy="15" rx="15.5" ry="15" fill="white"/>
<path d="M21.4538 8.60332C19.8638 7.04473 17.7464 6.1875 15.4962 6.1875C10.8516 6.1875 7.0721 9.88359 7.0721 14.4258C7.0721 15.8768 7.45915 17.2943 8.19531 18.5449L7 22.8125L11.4663 21.6658C12.6958 22.3227 14.0808 22.6678 15.4924 22.6678H15.4962C20.1371 22.6678 24 18.9717 24 14.4295C24 12.2289 23.0438 10.1619 21.4538 8.60332ZM15.4962 21.2799C14.2364 21.2799 13.0031 20.9496 11.9292 20.3262L11.675 20.1777L9.02634 20.8568L9.73214 18.3297L9.56518 18.0699C8.86317 16.9789 8.49509 15.7209 8.49509 14.4258C8.49509 10.6518 11.6371 7.5791 15.5 7.5791C17.3708 7.5791 19.1277 8.2916 20.4482 9.58672C21.7687 10.8818 22.5808 12.6 22.577 14.4295C22.577 18.2072 19.3554 21.2799 15.4962 21.2799ZM19.3364 16.1514C19.1277 16.0475 18.0917 15.5502 17.8982 15.4834C17.7047 15.4129 17.5643 15.3795 17.4239 15.5873C17.2835 15.7951 16.8813 16.2553 16.756 16.3963C16.6346 16.5336 16.5094 16.5521 16.3007 16.4482C15.0636 15.8434 14.2516 15.3684 13.4357 13.999C13.2194 13.6354 13.652 13.6613 14.0542 12.8746C14.1225 12.7373 14.0884 12.6186 14.0353 12.5146C13.9821 12.4107 13.5609 11.3977 13.3864 10.9857C13.2156 10.585 13.0411 10.6406 12.9121 10.6332C12.7906 10.6258 12.6502 10.6258 12.5098 10.6258C12.3694 10.6258 12.1417 10.6777 11.9482 10.8818C11.7547 11.0896 11.2121 11.5869 11.2121 12.6C11.2121 13.6131 11.9672 14.5928 12.0696 14.7301C12.1759 14.8674 13.5533 16.9455 15.667 17.8398C17.0027 18.4039 17.5263 18.4521 18.1942 18.3557C18.6002 18.2963 19.4388 17.8584 19.6134 17.376C19.7879 16.8936 19.7879 16.4816 19.7348 16.3963C19.6855 16.3035 19.5451 16.2516 19.3364 16.1514Z" fill="#003C5A"/>
</svg>
